<svg width="138" height="27" viewBox="0 0 138 27" fill="none" xmlns="http://www.w3.org/2000/svg">
<g clip-path="url(#clip0_569_51)">
<path d="M68.8669 4.45565C67.9694 4.63454 67.0719 4.81344 66.181 4.99231C65.4771 5.14081 64.7831 5.30715 64.0791 5.45744C63.9622 5.46907 63.8424 5.46907 63.7254 5.45744C63.8155 5.42524 63.9023 5.38947 63.9957 5.36084C64.0604 5.34479 64.1273 5.33165 64.1959 5.32146C65.0033 5.15869 65.8141 5.00127 66.6181 4.83489C67.4222 4.66853 68.1962 4.49858 68.9903 4.334C69.5678 4.21414 70.1545 4.10323 70.735 3.97622C70.7984 3.9637 70.8384 3.92077 70.8887 3.89214C70.8129 3.88355 70.7357 3.87935 70.6584 3.87962C70.5916 3.87962 70.5282 3.90824 70.462 3.91361C70.2414 3.92971 70.0311 4.03526 69.7946 3.9315C69.7643 3.91898 69.654 3.96191 69.5775 3.97622C69.3637 4.01916 69.2107 4.1891 68.9103 4.06388C68.8936 4.06388 68.8201 4.09429 68.7701 4.10502C68.5656 4.16937 68.3384 4.21019 68.1028 4.22488C68.0291 4.2208 67.9547 4.22455 67.8837 4.2359C67.8127 4.24726 67.7466 4.266 67.6891 4.29107C67.579 4.33043 67.5157 4.46996 67.3555 4.32506C67.3555 4.32506 67.212 4.32506 67.212 4.33579C67.212 4.49858 66.9752 4.4145 66.845 4.43418L65.3637 4.67032C65.0066 4.72576 64.6963 4.8492 64.286 4.83667C64.1659 4.83667 64.0157 4.94044 63.8355 4.86173C63.8355 4.86173 63.7722 4.87248 63.7689 4.8814C63.6721 5.06032 63.3785 4.9977 63.1583 5.02094C63.1116 5.02094 63.0315 5.02094 63.0182 5.03347C62.8746 5.15513 62.6845 5.14081 62.4543 5.12293C62.3909 5.12293 62.2842 5.12293 62.2608 5.14794C62.0873 5.32686 61.6869 5.23205 61.4501 5.34653C61.3001 5.39393 61.1328 5.42322 60.9596 5.43237C60.7828 5.45743 60.5993 5.46818 60.4257 5.4986C59.5027 5.66198 58.5807 5.83071 57.6598 6.00484C56.9926 6.13006 56.2919 6.2535 55.6146 6.38769C54.9374 6.52183 54.2467 6.67747 53.5594 6.81166C52.4551 7.02812 51.3407 7.23023 50.223 7.44847C48.9752 7.69892 47.734 7.95655 46.4896 8.21591C45.5253 8.41806 44.5678 8.62739 43.6069 8.83311C43.1999 8.91895 42.7895 9.01198 42.3825 9.08712C42.3163 9.09426 42.2483 9.09426 42.1823 9.08712C42.1925 9.05957 42.2105 9.03305 42.2356 9.00841C42.636 8.69892 43.0231 8.38765 43.3767 8.06032C43.8338 7.63631 44.3776 7.23741 44.8647 6.82414C45.423 6.36263 45.9791 5.9005 46.533 5.43777C46.7298 5.27495 46.9166 5.11218 47.1034 4.94758C47.1902 4.8707 47.2636 4.79194 47.3504 4.71506C47.5639 4.52541 47.7574 4.32506 48.0177 4.14796C48.3513 3.90646 48.7383 3.68284 49.0953 3.44849C49.3388 3.29107 49.5691 3.13007 49.7993 2.96549C49.8327 2.94223 49.8227 2.8993 49.8327 2.86352C49.7806 2.85995 49.7279 2.85995 49.6758 2.86352C49.4523 2.90109 49.2287 2.93686 49.0085 2.98338C48.7093 3.03237 48.4233 3.10214 48.1577 3.19089C47.964 3.26024 47.7623 3.32298 47.5539 3.37873C47.0735 3.53257 46.5196 3.62381 46.0725 3.79912C45.2751 4.11218 44.5378 4.47175 43.7671 4.80626C43.3733 4.98517 43.0197 5.16404 42.5893 5.32686C42.1651 5.51174 41.7639 5.71135 41.3882 5.92435C40.8276 6.18911 40.2505 6.44312 39.6799 6.70253C38.8058 7.09965 37.9328 7.49799 37.0609 7.8975C36.4937 8.15691 35.9465 8.43416 35.3693 8.68104C34.6053 9.01376 33.8145 9.33044 33.0338 9.65781C32.5667 9.85456 32.123 10.0639 31.6559 10.2571C31.1087 10.4843 30.5482 10.6971 29.9877 10.9207C29.1603 11.2606 28.3195 11.597 27.5154 11.9458C26.7113 12.2946 25.7471 12.554 25.1799 13.046C25.1577 13.0662 25.1295 13.0843 25.0965 13.0997C24.5896 13.2993 24.0354 13.4617 23.4483 13.5827C22.3117 13.8426 21.1729 14.108 20.0318 14.3787C18.8907 14.6495 17.7542 14.9238 16.622 15.2016C16.0348 15.3465 15.451 15.4986 14.8671 15.6506C14.46 15.758 14.0563 15.8689 13.6526 15.9798L12.2213 16.3787C12.1745 16.3912 12.0945 16.4127 12.0911 16.4306C12.0911 16.5827 11.931 16.5415 11.7575 16.5236C11.584 16.5058 11.217 16.6256 11.2571 16.6828C11.4172 16.9064 11.0135 16.9011 10.84 16.9673C10.5965 17.0413 10.3434 17.1059 10.0826 17.1605C10.0159 17.1802 9.98589 17.2374 9.94253 17.275C10.0259 17.275 10.1427 17.2857 10.1894 17.2624C10.2788 17.2196 10.386 17.1888 10.502 17.1727C10.6181 17.1565 10.7397 17.1554 10.8567 17.1694C10.9058 17.1762 10.9521 17.1878 10.9935 17.2034C10.9607 17.2247 10.9225 17.2433 10.8801 17.2589C10.3162 17.4002 9.73564 17.5236 9.19183 17.6846C8.85816 17.7866 8.3744 17.7884 8.19088 18.0227C8.19088 18.0334 8.10747 18.0424 8.09747 18.0352C7.94401 17.9512 7.83391 18.0352 7.71712 18.0656C7.49693 18.1158 7.28673 18.1802 7.06984 18.2446C6.853 18.309 6.63613 18.3537 6.40259 18.4055C6.16904 18.4574 5.89545 18.4843 5.7353 18.5845C5.57515 18.6846 5.40166 18.6614 5.22483 18.7079C5.15143 18.7294 5.12474 18.7902 5.06135 18.8277C5.00428 18.8579 4.94169 18.8849 4.8745 18.9082C4.72104 18.7508 4.58424 18.8903 4.45412 18.9208C4.2506 18.9708 4.06376 19.0406 3.86691 19.0997L3.67674 19.148C3.74211 19.1588 3.80484 19.1738 3.86357 19.1927C3.90608 19.2142 3.9411 19.2397 3.967 19.2678L3.48322 19.3859C3.38313 19.2463 3.31307 19.3537 3.23299 19.3859C3.18021 19.4194 3.11343 19.4458 3.03807 19.4629C2.96271 19.48 2.88089 19.4873 2.79926 19.4843C2.74254 19.4843 2.38554 19.4234 2.57906 19.6024C2.59574 19.6167 2.55904 19.6667 2.52568 19.6757C2.34989 19.7434 2.14814 19.7892 1.93513 19.8099C1.8551 19.8028 1.77302 19.8116 1.70425 19.8347C1.63547 19.8577 1.58471 19.8934 1.56145 19.9351C1.5381 19.9601 1.46803 19.9762 1.41799 19.9923C1.02763 20.1104 0.637265 20.2267 0.250241 20.3501C0.216878 20.3501 0.216878 20.3984 0.200195 20.4234C0.236896 20.4234 0.280269 20.4342 0.310297 20.4234C0.55669 20.3458 0.832813 20.2993 1.11771 20.2875C1.27532 20.2866 1.43089 20.2683 1.57479 20.2338C1.9318 20.1515 2.27878 20.0549 2.62577 19.9673C2.97275 19.8796 3.30973 19.7705 3.66339 19.6864C4.3974 19.5075 5.14809 19.3608 5.88211 19.1837C7.35677 18.8259 8.82479 18.4538 10.2995 18.0943C11.197 17.876 12.0978 17.6596 13.0087 17.4556C13.9195 17.2517 14.7703 17.0854 15.6545 16.9011L18.8841 16.2231C19.7649 16.0442 20.6457 15.8653 21.5199 15.665C22.4874 15.4521 23.4383 15.2195 24.4092 15.012C25.1932 14.8438 26.004 14.7097 26.788 14.5415C27.9002 14.303 29.0123 14.0549 30.1245 13.7973C31.3056 13.5218 32.48 13.232 33.6511 12.9405C34.1215 12.8242 34.5752 12.6846 35.0324 12.5576L35.2058 12.5111C35.2273 12.55 35.2364 12.5905 35.2325 12.631C35.2051 12.682 35.1647 12.7308 35.1124 12.7759C34.8822 13.0192 34.6419 13.2589 34.4184 13.5022C34.0114 13.9529 33.6177 14.3966 33.204 14.8546C32.8703 15.2124 32.5 15.5701 32.1664 15.9476C31.8327 16.3251 31.4757 16.7437 31.1287 17.1426C30.992 17.3018 30.8685 17.4646 30.7116 17.6167C30.5549 17.7687 30.4214 17.8921 30.6015 18.0532C30.4214 18.1712 30.4748 18.334 30.3247 18.4646C30.1421 18.644 29.9827 18.8298 29.8475 19.021C29.8327 19.0427 29.826 19.0658 29.8275 19.0889C29.8275 19.1015 29.8275 19.1283 29.8542 19.1283C29.8881 19.1278 29.9208 19.1215 29.9476 19.1104C29.971 19.1104 29.9843 19.0889 30.0077 19.0782C30.2946 18.9279 30.308 18.6524 30.7884 18.5916C30.7884 18.5916 30.8117 18.5541 30.7884 18.5362C30.715 18.4073 30.7884 18.3573 31.052 18.3268C31.1621 18.3268 31.2655 18.2338 31.3389 18.173C31.5524 17.9941 31.7426 17.8152 31.9495 17.6363C32.2464 17.3787 32.5601 17.1265 32.8436 16.8653C33.2473 16.4914 33.6344 16.114 34.0247 15.7365C34.4151 15.359 34.8188 14.9566 35.2259 14.5701C35.4798 14.3093 35.7582 14.0556 36.0599 13.8098C36.4503 13.5129 36.8974 13.2374 37.3144 12.9494C37.5213 12.8081 37.7115 12.6578 37.915 12.5147C38.2111 12.3261 38.4895 12.1297 38.7491 11.9261C38.9836 11.7023 39.36 11.5309 39.8101 11.4431C40.6742 11.2642 41.5217 11.0728 42.3758 10.8885C43.043 10.7472 43.6836 10.6095 44.3409 10.47C44.7213 10.3894 45.1083 10.3143 45.4886 10.232C46.4896 10.0138 47.4905 9.79552 48.4914 9.5737C49.8015 9.28632 51.1105 8.99588 52.4184 8.70254C53.1057 8.54868 53.7896 8.3823 54.4803 8.23201C55.5045 8.00841 56.5389 7.80091 57.5564 7.57191C58.6742 7.32147 59.7785 7.05492 60.8929 6.79194C61.8003 6.57909 62.7012 6.35906 63.612 6.14973C64.7897 5.87783 65.9775 5.61307 67.162 5.34831C67.2854 5.31968 67.2788 5.31968 67.2621 5.21595C67.2648 5.2037 67.2729 5.19197 67.2857 5.18174C67.2984 5.17146 67.3155 5.16296 67.3354 5.15691C67.7225 5.07463 68.1162 4.9977 68.5032 4.91181C68.64 4.8814 68.8368 4.83845 68.8669 4.78124C68.9169 4.68284 68.967 4.65422 69.1507 4.67211C69.3341 4.69 69.574 4.70075 69.6443 4.53973C69.6643 4.495 69.7981 4.45565 69.8077 4.56298L70.1414 4.51826V4.47712C69.8077 4.4646 70.0214 4.42345 70.1414 4.39483C70.2614 4.3662 70.3248 4.35726 70.4185 4.33579C70.8853 4.23204 71.3527 4.13007 71.8132 4.01916C71.8566 4.00842 71.8594 3.94581 71.8794 3.90466C70.8687 4.07819 69.8643 4.26245 68.8669 4.45565ZM40.0002 8.24816L38.4221 9.59158C38.2486 9.7383 38.0885 9.88676 37.895 10.0281C37.8273 10.0763 37.7361 10.1134 37.6314 10.1354C36.5882 10.3739 35.5406 10.6053 34.4885 10.8295C34.4484 10.8295 34.3851 10.8295 34.335 10.8206C34.3536 10.7933 34.3807 10.7679 34.4151 10.7454C34.8088 10.5666 35.2058 10.377 35.6028 10.1945C36.6738 9.70071 37.7481 9.20878 38.8125 8.71145C39.1962 8.53258 39.5598 8.35367 39.9335 8.16405C39.9673 8.15072 40.003 8.13875 40.0403 8.12828C40.0403 8.14082 40.0636 8.1533 40.0769 8.17123C40.0903 8.18911 40.0303 8.22309 40.0002 8.24816Z" fill="white"/>
<path d="M102.344 9.1684C101.966 9.21852 101.596 9.27039 101.223 9.3169C100.919 9.35445 100.615 9.39026 100.312 9.42246C100.169 9.43677 100.129 9.40274 100.189 9.33121C100.332 9.1523 100.462 8.98235 100.622 8.81422C100.862 8.56199 101.119 8.31511 101.38 8.06645C101.437 8.01431 101.51 7.96775 101.596 7.9287C101.696 7.8804 101.83 7.85712 101.813 7.74983C101.813 7.7158 101.964 7.66037 102.06 7.63892C102.777 7.4761 103.505 7.32403 104.219 7.15591C104.516 7.08612 104.779 6.97699 105.073 6.90185C105.74 6.73373 106.408 6.57631 107.075 6.41706C108.146 6.16126 109.223 5.90903 110.295 5.64962C111.089 5.45822 111.873 5.2525 112.663 5.05748C113.998 4.73194 115.306 4.40455 116.637 4.0897C117.361 3.91976 118.112 3.7838 118.839 3.61922C119.393 3.494 119.94 3.35267 120.48 3.20956C120.64 3.16663 120.767 3.08792 120.924 3.03962C121.081 2.99132 121.231 2.87862 121.518 2.95017C121.645 2.98237 121.888 2.90366 122.065 2.85894C123.083 2.60312 124.094 2.333 125.118 2.08434C125.892 1.90545 126.687 1.73729 127.454 1.56019C128.365 1.35089 129.266 1.12728 130.183 0.925125C131.19 0.7033 132.207 0.492209 133.232 0.291853C133.634 0.226086 134.042 0.171157 134.453 0.127274C134.52 0.114973 134.584 0.100024 134.647 0.0825511L134.901 0.0217285C134.834 0.0628736 134.787 0.118329 134.704 0.143374C133.936 0.381299 133.162 0.615644 132.388 0.844627C132.258 0.874107 132.125 0.898034 131.988 0.916184C131.907 0.930495 131.804 0.935859 131.758 0.966273C131.424 1.19346 130.837 1.17736 130.45 1.35268C130.153 1.29901 130.073 1.47432 129.859 1.51547C129.645 1.55661 129.406 1.6389 129.192 1.68183C128.734 1.78651 128.288 1.90599 127.857 2.03962C127.57 2.12191 127.257 2.18094 126.96 2.25428C126.9 2.2686 126.826 2.3008 126.82 2.32942C126.793 2.42602 126.669 2.40097 126.563 2.40097C126.465 2.39593 126.365 2.40017 126.269 2.4135C126.189 2.4296 126.132 2.4779 126.063 2.51189H126.313C126.363 2.51189 126.416 2.51189 126.469 2.51189C126.433 2.53514 126.409 2.56555 126.366 2.57629C126.012 2.6711 125.662 2.76949 125.302 2.85357C125.224 2.8692 125.153 2.8931 125.093 2.92385C125.032 2.95458 124.984 2.99153 124.951 3.03246C124.839 3.1367 124.673 3.22168 124.474 3.27754C122.9 3.71999 121.313 4.1547 119.717 4.58165C119.022 4.76052 118.302 4.92156 117.604 5.10221C117.382 5.16623 117.178 5.24762 117 5.34374C116.361 5.64084 115.656 5.89551 114.902 6.10221C114.101 6.34196 113.304 6.58522 112.49 6.81779C111.939 6.96986 111.342 7.0772 110.822 7.24175C110.385 7.37594 109.897 7.44212 109.46 7.57448C109.413 7.58879 109.333 7.61564 109.34 7.62639C109.44 7.80526 109.09 7.82675 108.953 7.91438C108.723 8.06467 108.713 8.08255 108.996 8.18271C109.477 8.35088 109.951 8.52618 110.418 8.7051C110.885 8.88397 111.349 9.07359 111.816 9.25429C111.935 9.30263 112.081 9.32873 112.231 9.32873C112.381 9.32873 112.527 9.30263 112.647 9.25429C112.715 9.23232 112.787 9.21491 112.863 9.20242C112.847 9.24922 112.823 9.29526 112.794 9.34013C112.689 9.4854 112.56 9.6255 112.41 9.75875C112.173 9.94658 111.889 10.1165 111.622 10.2954C111.371 10.4785 111.098 10.6523 110.805 10.816C110.518 10.9633 110.188 11.0842 109.827 11.1738C109.146 11.3233 108.488 11.5028 107.862 11.7105C107.572 11.8106 107.385 11.9752 107.025 12.0343C106.674 12.1141 106.339 12.2117 106.024 12.3258C105.69 12.4206 105.356 12.5047 105.043 12.5995C104.936 12.6317 104.843 12.6765 104.743 12.714C104.883 12.7623 105.02 12.816 105.167 12.8589C105.194 12.8614 105.222 12.8608 105.249 12.8571C105.276 12.8534 105.301 12.8467 105.323 12.8375C105.593 12.7158 105.844 12.7766 106.111 12.8375C106.377 12.8983 106.694 12.9537 106.988 13.0163C107.043 13.0232 107.094 13.0367 107.138 13.0557C107.538 13.3169 108.156 13.3634 108.676 13.4993C108.907 13.5584 109.11 13.7105 109.433 13.6353C109.881 13.9072 110.594 13.8589 111.132 14.045C111.655 14.1907 112.203 14.3104 112.767 14.4028C112.958 14.4364 113.144 14.477 113.324 14.5244C113.374 14.5423 113.417 14.5655 113.449 14.5926C113.482 14.6196 113.504 14.65 113.514 14.6818C113.547 14.8607 113.757 14.9162 114.028 14.9734C114.775 15.1309 115.509 15.3044 116.253 15.4689C116.76 15.5798 117.281 15.6818 117.788 15.7963C118.455 15.9519 119.122 16.1201 119.81 16.2722C120.381 16.401 120.964 16.5101 121.538 16.63C122.112 16.7498 122.742 16.8983 123.346 17.0289C123.95 17.1594 124.491 17.2793 125.068 17.3992C125.475 17.4832 125.896 17.5459 126.293 17.6407C126.351 17.6648 126.398 17.6953 126.432 17.7302C126.466 17.7651 126.486 17.8035 126.489 17.8428C126.529 18.0593 126.536 18.0539 126.926 18.138C127.083 18.1612 127.228 18.2014 127.354 18.2562C127.479 18.311 127.583 18.3792 127.657 18.4564C127.657 18.4672 127.734 18.4761 127.754 18.4689C127.984 18.3956 128.024 18.4081 128.071 18.5691C128.071 18.5906 128.121 18.6085 128.144 18.6281C128.361 18.528 128.405 18.6532 128.531 18.6997C128.691 18.7473 128.861 18.7827 129.038 18.8053C129.475 18.884 129.843 19.0539 130.313 19.0844C130.368 19.0928 130.419 19.1075 130.463 19.1272C131.571 19.5315 132.859 19.7373 134.033 20.0664C134.767 20.2721 135.541 20.4367 136.285 20.6317C136.689 20.7355 137.072 20.8643 137.466 20.9895C137.523 21.0104 137.584 21.0289 137.646 21.045C137.713 21.055 137.781 21.0622 137.85 21.0664C137.75 21.0897 137.646 21.138 137.556 21.1326C137.394 21.1143 137.238 21.0854 137.089 21.0468C136.211 20.8679 135.341 20.6675 134.457 20.4868C133.789 20.3527 133.122 20.2346 132.455 20.1094L129.119 19.4797C127.931 19.256 126.74 19.0378 125.555 18.8106C124.708 18.6479 123.867 18.4707 123.02 18.3062C121.875 18.0861 120.724 17.8714 119.577 17.655C118.909 17.5298 118.242 17.4028 117.575 17.2793C117.218 17.2131 116.851 17.1594 116.497 17.0843C116.155 16.9848 115.792 16.9079 115.416 16.8554C115.209 16.5977 114.712 16.6246 114.328 16.5405C113.944 16.4564 113.497 16.3455 113.074 16.2596C112.65 16.1738 112.213 16.1148 111.789 16.0307C111.365 15.9466 110.885 15.8232 110.425 15.7319C109.733 15.5711 109.015 15.4464 108.279 15.3598C107.525 15.2922 106.794 15.1662 106.107 14.9859C105.44 14.8071 104.772 14.5835 104.025 14.5065C103.84 14.4804 103.649 14.4708 103.458 14.4779C103.194 14.466 102.94 14.4213 102.714 14.3473C102.55 14.3097 102.414 14.2382 102.244 14.206C101.15 13.9734 100.031 13.7945 98.9476 13.5781C98.2499 13.4439 97.5695 13.2918 96.889 13.1398C96.5815 13.0718 96.6084 13.0611 96.7787 12.9019C96.8952 12.7909 97.2254 12.7087 97.0055 12.5262C96.9855 12.5101 97.2254 12.3831 97.3757 12.333C97.9362 12.1541 98.5133 11.9752 99.0841 11.7963C99.2013 11.7531 99.3281 11.7177 99.4612 11.6908C99.5005 11.6883 99.5405 11.691 99.5777 11.6984C99.6149 11.7059 99.648 11.718 99.6749 11.7337C99.6983 11.7498 99.6446 11.8339 99.608 11.8375C99.3447 11.8625 99.5046 11.9663 99.4743 12.0306C99.4743 12.045 99.4743 12.0736 99.4743 12.0736C99.6749 12.1039 99.8838 12.1154 100.092 12.1076C100.282 12.0601 100.46 12 100.622 11.9287C100.905 11.8295 101.202 11.7422 101.509 11.6675C102.864 11.3795 104.232 11.1058 105.59 10.8196C106.221 10.6872 106.841 10.5387 107.469 10.3974C107.547 10.3807 107.623 10.3604 107.695 10.3366C107.866 10.274 107.849 10.2149 107.662 10.1756C107.282 10.0951 106.901 10.0092 106.511 9.94123C105.717 9.80526 104.906 9.68722 104.115 9.54585C103.605 9.45465 103.114 9.33657 102.61 9.22922L102.344 9.1684Z" fill="white"/>
<path d="M83.4933 6.80095C83.29 7.23566 83.1328 7.70793 82.846 8.15517C82.3186 8.97269 81.7085 9.77589 81.1445 10.5881C80.8109 11.0621 80.5172 11.5398 80.2035 12.0192C80.0697 12.2249 79.9401 12.4306 79.7933 12.6346C79.7299 12.7276 79.5527 12.8135 79.6961 12.9208V12.9405C79.2528 13.0782 79.3397 13.3645 79.0991 13.5487C78.8681 13.7558 78.7054 13.9827 78.6185 14.2195C78.4551 14.5237 78.3317 14.8332 78.1952 15.139C78.1952 15.1623 78.1952 15.1927 78.1752 15.2052C77.7747 15.4342 77.7844 15.758 77.5079 16.0228C77.2901 16.2964 77.1156 16.5795 76.9874 16.8689C76.7937 17.1927 76.6 17.5165 76.3835 17.8367C75.9795 18.4396 75.5589 19.0389 75.1419 19.6381C75.1088 19.6782 75.0688 19.7165 75.0219 19.7526C74.9171 19.8217 74.8261 19.8967 74.7517 19.9763C74.5014 20.3609 74.2615 20.7455 74.0278 21.1337C73.7941 21.5218 73.5576 21.9244 73.3404 22.3215C73.2005 22.5755 73.0971 22.8367 72.9668 23.0925C72.8365 23.3483 72.7069 23.5862 72.5697 23.8331C72.3932 24.1605 72.216 24.4879 72.0292 24.8135C71.9892 24.8796 72.0292 24.9923 71.7658 24.9673C71.732 24.9673 71.6355 25.0747 71.6059 25.1462C71.4852 25.402 71.3784 25.6596 71.2722 25.9172C71.2019 26.0782 71.1316 26.2392 71.0516 26.4002C71.0516 26.4181 70.9682 26.4288 70.9248 26.4431C70.9144 26.4227 70.9089 26.4017 70.9082 26.3805C70.9882 26.1265 71.0681 25.8725 71.155 25.6184C71.2053 25.4664 71.2688 25.3161 71.3087 25.1641C71.3336 25.1042 71.3232 25.0417 71.2784 24.9852C71.2219 24.9226 71.1454 24.8796 71.3522 24.8707C71.3522 24.8707 71.3956 24.8421 71.3922 24.8385C71.3287 24.8027 71.2019 24.7616 71.2115 24.7347C71.2219 24.7079 71.3487 24.6596 71.3956 24.6149C71.4342 24.5655 71.4618 24.5139 71.479 24.461C71.4887 24.4472 71.4956 24.4328 71.499 24.4181C71.499 24.3805 71.499 24.343 71.499 24.3054C71.459 24.3358 71.4253 24.3662 71.3818 24.3931C71.3446 24.4106 71.3046 24.4261 71.2619 24.4396C71.2584 24.4128 71.2584 24.3859 71.2619 24.3591C71.2853 23.9154 71.5652 23.4986 71.7589 23.0711C71.9161 22.7258 72.0492 22.377 72.2098 22.0317C72.316 21.8063 72.4532 21.5863 72.5662 21.3626C72.6131 21.2678 72.7531 21.1748 72.5862 21.0711C72.56 21.0532 72.5862 20.9995 72.62 20.9655C72.7503 20.8045 72.7503 20.8063 72.62 20.563C72.62 20.5398 72.6731 20.5057 72.7096 20.4789C72.7834 20.4199 72.8668 20.3626 72.9371 20.3C72.9371 20.2875 72.9371 20.2553 72.8999 20.2428C72.773 20.1784 72.7731 20.182 72.9702 20.1283C73.0102 20.1176 73.0371 20.0925 73.0736 20.0729C73.0336 20.0729 72.9971 20.0729 72.9599 20.0729C72.8034 20.0836 72.793 20.0335 72.8234 19.9744C72.8737 19.8725 72.9433 19.7723 72.9999 19.6703L73.8106 18.2177C73.9444 17.9798 74.0843 17.7419 74.218 17.5022C74.2449 17.4503 74.3084 17.3841 74.1043 17.3967C74.0643 17.3631 74.0443 17.3238 74.0478 17.2839C74.1415 17.0067 74.2511 16.733 74.3546 16.4557C74.4304 16.1052 74.5655 15.7591 74.7585 15.4217C74.9688 15.1337 75.0922 14.8332 75.2722 14.5433C75.4259 14.318 75.6892 14.0979 75.5824 13.8278C75.581 13.8019 75.5907 13.7762 75.6093 13.7524C75.6286 13.7286 75.6568 13.7074 75.6927 13.6901C75.9843 13.5306 76.1511 13.3175 76.1601 13.0943C76.1615 13.0494 76.1677 13.0046 76.1801 12.9602C76.2001 12.9047 76.2332 12.851 76.2601 12.7973C76.1332 12.8195 76.0126 12.8514 75.903 12.8922C75.4424 13.1247 74.9957 13.3662 74.5448 13.6077C74.5235 13.6177 74.5069 13.6307 74.4979 13.6453C74.4993 13.7343 74.438 13.8203 74.327 13.8864C74.216 13.9526 74.0629 13.9942 73.8975 14.0031C73.8575 14.0031 73.8244 14.0603 73.8141 14.0925C73.7541 14.3072 73.7341 14.3001 73.357 14.2714C72.9881 14.2442 72.6414 14.1617 72.356 14.0335C72.2195 13.9839 72.1078 13.917 72.0306 13.8386C71.954 13.7603 71.9147 13.673 71.9161 13.5845C71.9161 13.4414 71.9161 13.2983 71.9161 13.1551C71.9389 12.7158 72.1395 12.2842 72.5028 11.8904C72.8323 11.4897 73.1584 11.0878 73.4804 10.6846C73.732 10.3703 74.1064 10.0885 74.5786 9.85821C74.6786 9.80809 74.7654 9.72581 74.9123 9.80987C74.9564 9.78781 74.9978 9.76387 75.0357 9.73834C75.1191 9.67395 75.2053 9.60955 75.279 9.54154C75.419 9.40379 75.5493 9.2643 75.6892 9.12654C75.7092 9.10866 75.7727 9.10148 75.8127 9.09073C75.8278 9.11072 75.8368 9.13185 75.8395 9.15334C75.8395 9.19094 75.7961 9.2267 75.7892 9.2643C75.743 9.4664 75.6927 9.66677 75.6562 9.8707C75.6093 10.4091 75.4686 10.9439 75.2356 11.4682C75.1481 11.5973 75.157 11.7394 75.2591 11.8654C75.3556 11.9745 75.419 11.9637 75.5562 11.9083C76.1567 11.6686 76.7337 11.4038 77.3742 11.1927C77.9147 11.0138 78.0849 10.7419 78.3118 10.4771C78.5386 10.2124 78.7819 9.8922 79.0225 9.5988C79.0487 9.55684 79.0935 9.51883 79.1528 9.4879C79.4431 9.34456 79.685 9.17578 79.8698 8.98879C79.9001 8.96551 79.9167 8.92261 79.9601 8.91364C80.604 8.78664 80.684 8.4396 80.9611 8.17127C81.2714 7.86 81.4747 7.52366 81.8153 7.216C82.189 6.87966 82.482 6.51831 82.8156 6.1623C82.8729 6.09969 82.9094 6.03886 83.0425 6.07467C83.0962 6.09077 83.1093 6.16948 83.0997 6.21778C83.0735 6.29349 83.0376 6.36821 82.9928 6.44138C83.0859 6.37365 83.1666 6.30114 83.2327 6.22491C83.323 6.09791 83.3734 5.96372 83.4533 5.83493C83.4699 5.8063 83.543 5.7902 83.5899 5.76697C83.6154 5.79949 83.6367 5.83296 83.6533 5.86713C83.6533 5.88684 83.6236 5.90829 83.6098 5.92974C83.483 6.15695 83.3561 6.38233 83.2362 6.60955C83.2362 6.62208 83.2962 6.66141 83.3031 6.65963C83.7367 6.52905 83.3996 6.7312 83.4933 6.80095Z" fill="white"/>
<path d="M74.1041 14.9818C74.0469 14.9402 73.9856 14.9001 73.9208 14.8619C73.8539 14.8082 73.7374 14.7403 73.7574 14.6956C73.8077 14.599 73.7105 14.6007 73.6009 14.5739C73.3754 14.5334 73.1645 14.4729 72.977 14.395C72.7357 14.277 72.4427 14.1934 72.1262 14.1517C71.9794 14.129 71.8394 14.0959 71.7091 14.0533C71.1714 13.8744 70.6282 13.6956 70.1104 13.4952C69.714 13.3431 69.2831 13.1982 69.1101 12.9317C69.0928 12.9102 69.0094 12.9013 68.9563 12.887C68.864 12.869 68.7737 12.8481 68.686 12.8243C68.1489 12.6365 67.605 12.4522 67.0745 12.2555C66.5441 12.0587 66.0737 11.8673 65.5732 11.6705C65.5347 11.6508 65.501 11.6286 65.4731 11.6043C65.5243 11.5968 65.5769 11.592 65.6299 11.59C66.1671 11.59 66.7042 11.6079 67.2448 11.59C67.7853 11.5721 68.3457 11.5739 68.8962 11.5614C69.0632 11.5614 69.23 11.5435 69.3934 11.5328V11.5632C69.7257 11.555 70.0546 11.5231 70.371 11.4683C71.2252 11.2608 71.7822 10.878 72.2662 10.4612C72.3696 10.3717 72.3096 10.3539 72.1724 10.3109C71.9256 10.234 71.5051 10.3109 71.4286 10.0802C71.4051 10.0808 71.3817 10.0808 71.3582 10.0802C71.2017 10.0668 71.0466 10.0477 70.895 10.0229C70.5178 9.95317 70.1573 9.85653 69.7767 9.80467C68.2223 9.59717 66.6642 9.40037 65.1061 9.20183C63.7715 9.03367 62.457 8.86371 61.1291 8.70273C60.3951 8.61505 59.6544 8.54709 58.9237 8.4612C58.39 8.38483 57.8345 8.3624 57.2855 8.39502C57.0053 8.41647 56.7217 8.41825 56.4414 8.42543C56.1612 8.43257 56.0144 8.53991 56.1378 8.6848C56.2682 8.83574 56.4141 8.98265 56.5749 9.12491C56.725 9.25905 56.8085 9.42722 57.1187 9.48265C57.429 9.53813 57.8127 9.60787 58.1497 9.68301C58.3365 9.72418 58.3899 9.69555 58.4599 9.60787C58.5483 9.53428 58.6698 9.47373 58.8133 9.43182C58.9567 9.38995 59.1174 9.36803 59.2807 9.36817C59.5743 9.39859 59.8612 9.44153 60.1548 9.46477C60.3484 9.48087 60.375 9.52024 60.3384 9.61684C60.1515 10.1249 59.9814 10.6347 59.7946 11.1428C59.7311 11.3217 59.551 11.5006 59.5944 11.6687C59.6744 11.9818 59.5944 12.3091 59.8546 12.6079C59.8878 12.6489 59.8982 12.6943 59.8846 12.7385C59.8312 12.9085 59.7612 13.0784 59.7011 13.2483C59.5643 13.6347 59.4275 14.0229 59.3007 14.4093C59.2864 14.458 59.3066 14.5078 59.3575 14.5489C59.4709 14.624 59.5109 14.658 59.4375 14.6741C59.1873 14.7331 59.2374 14.8065 59.3508 14.9031C59.3835 14.9448 59.3928 14.9909 59.3775 15.0355C59.3141 15.3074 59.2374 15.5721 59.1773 15.8494C59.1673 15.9202 59.1673 15.9914 59.1773 16.0623C59.2508 16.0028 59.3124 15.9392 59.3608 15.8726C59.5276 15.5578 59.6778 15.243 59.8412 14.9263C59.8643 14.9026 59.8923 14.8804 59.9247 14.8601C59.9267 14.8801 59.9323 14.8998 59.9413 14.9192C59.9613 14.9514 59.988 14.9818 60.0114 15.0122C60.0623 14.9869 60.1051 14.9573 60.1382 14.9246C60.4184 14.4648 60.702 14.005 60.9656 13.5417C61.2292 13.0784 61.4427 12.6473 61.6796 12.209C61.7563 12.0659 61.8331 12.048 62.0133 12.1303C62.7807 12.489 63.6265 12.7966 64.5322 13.0462C65.036 13.1803 65.5332 13.4039 66.1604 13.2501C66.1745 13.2475 66.1897 13.2475 66.2038 13.2501C66.6475 13.2947 67.0854 13.3545 67.515 13.429C67.8674 13.5207 68.2094 13.6235 68.5393 13.7367C69.5003 13.9979 70.4544 14.2626 71.4286 14.5077C72.2496 14.7134 73.0969 14.8941 73.9276 15.0838C73.9925 15.0937 74.06 15.0973 74.1276 15.0945C74.131 15.0565 74.1234 15.0184 74.1041 14.9818ZM62.8507 10.6329C62.6672 10.6329 62.5804 10.599 62.6338 10.4952C62.7272 10.3163 62.8306 10.1374 62.9107 9.96927C62.9675 9.85297 63.0909 9.82973 63.2911 9.85475C63.9384 9.94064 64.5856 10.0229 65.2329 10.1052C65.7834 10.175 66.3339 10.2394 66.881 10.3109C67.1546 10.3467 67.4216 10.3915 67.6918 10.4344C67.7218 10.4344 67.7452 10.4559 67.7686 10.4666C67.6885 10.4987 67.6184 10.5489 67.5283 10.5578C67.2366 10.5903 66.9412 10.613 66.6441 10.6258C66.3639 10.6365 66.0803 10.6258 65.7967 10.6258C64.8158 10.6329 63.8349 10.6312 62.8507 10.6329Z" fill="white"/>
<path d="M34.451 18.7616C34.5243 18.6507 34.6044 18.5416 34.6745 18.4307C34.7746 18.2768 34.8747 18.1212 34.9681 17.9637C34.9733 17.9511 34.9733 17.938 34.9681 17.9253C34.9629 17.9126 34.9527 17.9007 34.938 17.8904C34.8012 17.8457 34.7946 17.8296 34.938 17.7974C35.175 17.7508 35.1516 17.7473 35.0649 17.6024C35.0511 17.5366 35.0768 17.4702 35.1382 17.4128C35.4719 17.0049 35.8055 16.5952 36.2059 16.1963C36.8732 15.4807 37.5682 14.7753 38.2912 14.08C38.8483 13.5433 39.4656 13.0067 40.0094 12.4557C40.221 12.275 40.5448 12.1401 40.9236 12.0746C41.6442 11.8958 42.3949 11.7616 43.1356 11.6167C43.1783 11.6139 43.2216 11.617 43.2613 11.6258C43.301 11.6346 43.3359 11.6487 43.3625 11.6668C43.5031 11.8468 43.6061 12.0346 43.6694 12.2267C43.6978 12.4447 43.6978 12.6635 43.6694 12.8815C43.6493 12.9646 43.6493 13.0488 43.6694 13.1319C43.7011 13.2036 43.779 13.267 43.8896 13.3108C43.943 13.3287 44.1232 13.2768 44.1899 13.2338C44.5703 12.9834 45.0874 12.7956 45.3443 12.4879C45.3994 12.4349 45.4692 12.3866 45.5512 12.3448C45.5829 12.3298 45.6189 12.3177 45.6579 12.309C45.6579 12.3358 45.6813 12.3627 45.688 12.3895C45.6946 12.4163 45.688 12.4289 45.688 12.4485C45.7183 12.4376 45.7473 12.4257 45.7747 12.4128C45.8515 12.3627 45.9282 12.309 46.0016 12.2571C46.035 12.2357 46.065 12.2106 46.095 12.1873C46.0417 12.1873 45.9682 12.2034 45.9349 12.1873C45.9015 12.1712 45.8648 12.1229 45.8848 12.1068C46.0617 11.9566 46.2585 11.8117 46.4353 11.6614C46.7957 11.3591 47.146 11.055 47.4996 10.7491C47.6665 10.6006 47.8099 10.4432 48.0034 10.3036C48.0484 10.2783 48.1039 10.2591 48.1654 10.2476C48.2269 10.2361 48.2926 10.2326 48.3571 10.2375C48.6907 10.275 49.0244 10.3358 49.328 10.3895C49.4748 10.4145 49.6182 10.4503 49.7651 10.4754C49.982 10.5111 49.9953 10.6024 49.982 10.6954C49.9523 10.9369 50.0044 11.1794 50.1354 11.411C50.1644 11.4907 50.1457 11.5734 50.082 11.6471C49.9019 11.8725 49.675 12.089 49.5015 12.3162C49.1678 12.7562 48.8609 13.2017 48.5339 13.6435C48.4515 13.7474 48.3568 13.8484 48.2503 13.9459C48.073 14.1427 47.9601 14.3546 47.9167 14.572C47.9167 14.6185 47.7932 14.6525 47.7466 14.699C47.6998 14.7455 47.6331 14.8028 47.8266 14.8063C47.85 14.8063 47.8967 14.8868 47.89 14.8904C47.4029 15.0424 47.3061 15.3233 47.1026 15.5684C46.9225 15.7849 46.6656 15.9834 46.5254 16.2052C46.283 16.5094 46.1073 16.8275 46.0016 17.1534C45.9796 17.251 45.9461 17.3478 45.9015 17.4432C45.9015 17.4575 45.8415 17.4682 45.8114 17.4807C45.7914 17.4629 45.7514 17.4468 45.7514 17.4307C45.7514 17.377 45.7714 17.3251 45.7747 17.2715C45.8214 16.5201 45.718 15.7634 45.9215 15.0156C45.9469 14.8623 45.8765 14.7087 45.7214 14.5791C45.6279 14.4772 45.5312 14.4539 45.3376 14.5469C45.0392 14.6854 44.7225 14.8121 44.3901 14.9262C44.1532 15.0138 44.1065 14.987 43.9097 14.851C43.7334 14.7444 43.5391 14.6468 43.3291 14.5594C43.2958 14.5451 43.2257 14.5594 43.1757 14.5469C43.1911 14.5727 43.2101 14.5978 43.2324 14.6221C43.2524 14.6417 43.2991 14.656 43.3124 14.6757C43.3248 14.7081 43.3304 14.7411 43.3291 14.7741C43.2645 14.7746 43.2001 14.7691 43.1389 14.758C42.7532 14.6364 42.4583 14.4467 42.3049 14.2214C42.1881 14.0585 42.0947 13.8922 41.9712 13.7276C41.9367 13.6871 41.8942 13.6488 41.8444 13.6131C41.7851 13.641 41.7314 13.6722 41.6843 13.7062C41.2038 14.0907 40.7468 14.4825 40.2463 14.86C39.8526 15.1569 39.4122 15.436 38.9751 15.7169C38.8984 15.7669 38.7449 15.7813 38.6414 15.8171C38.5826 15.8311 38.5302 15.8518 38.488 15.8779C37.7907 16.4146 37.0901 16.9512 36.3994 17.4879C36.2226 17.6256 36.0658 17.7741 35.9023 17.9101C35.7388 18.046 35.6387 18.1981 35.235 18.2142C35.1149 18.2142 35.0281 18.3824 34.9013 18.4629C34.7746 18.5433 34.7412 18.7365 34.4209 18.7598L34.451 18.7616Z" fill="white"/>
<path d="M93.6496 2.43256C93.6096 2.54705 93.5731 2.64365 93.5496 2.74204C93.5482 2.77118 93.5558 2.80027 93.5731 2.82791C93.6131 2.80287 93.673 2.77961 93.6896 2.75098C93.8799 2.42719 94.0605 2.10161 94.257 1.77782C94.3142 1.7148 94.3824 1.6549 94.4603 1.59893L94.7575 1.31271C94.774 1.2966 94.8009 1.2805 94.8209 1.2644C94.8209 1.28408 94.8643 1.30376 94.8609 1.32165C94.814 1.55957 94.7713 1.79929 94.7078 2.03721C94.6375 2.3127 94.5272 2.58462 94.4803 2.86011C94.4204 3.19821 94.4141 3.53811 94.3673 3.87621C94.3204 4.21431 94.2473 4.57567 94.1935 4.92451C94.1701 5.07118 94.1735 5.2179 94.1536 5.36457C94.1536 5.45225 94.1039 5.54349 94.0901 5.62577C94.0632 5.74442 94.0508 5.86397 94.0536 5.98356C94.0536 6.08907 93.8564 6.16243 93.9536 6.29122C93.9915 6.40447 93.9681 6.52115 93.8868 6.62755C93.7668 6.87265 93.6131 7.11235 93.4828 7.35383C93.4366 7.44329 93.4193 7.53275 93.3897 7.62756C93.3766 7.78413 93.318 7.93864 93.216 8.0855C92.9526 8.3306 92.6893 8.56673 92.7292 8.85834C92.7127 9.04584 92.6189 9.22908 92.4555 9.39499C92.2549 9.70087 91.9385 9.99426 91.8516 10.3073C91.651 10.8459 91.3904 11.3776 91.0705 11.8995C90.8416 12.2679 90.5617 12.6266 90.2336 12.9728C89.9399 13.3306 89.6297 13.6883 89.3291 14.0461C89.2794 14.107 89.276 14.1803 89.216 14.2394C89.1395 14.3026 89.0533 14.3625 88.9589 14.4182C88.9285 14.4379 88.8954 14.4558 88.8686 14.4755C88.6211 14.6512 88.426 14.8468 88.2915 15.0551C88.1178 15.3914 87.8544 15.7152 87.6242 16.0426C87.5918 16.074 87.5504 16.1025 87.5008 16.1266C87.5008 16.0891 87.5008 16.0497 87.5173 16.0104C87.5442 15.9138 87.5773 15.8172 87.6042 15.7205C87.6049 15.695 87.5966 15.6696 87.5807 15.6455C87.5373 15.6633 87.4739 15.6759 87.4539 15.6991C87.2071 16.0193 86.9672 16.3395 86.7204 16.6597C86.6232 16.7832 86.4998 16.9012 86.3867 17.0175C86.3564 17.0765 86.3315 17.1362 86.3129 17.1964C86.2798 17.2519 86.1061 17.2465 86.1799 17.3753C86.253 17.5041 86.033 17.6418 85.9393 17.776C85.9393 17.7886 85.8993 17.7939 85.8793 17.8029C85.8565 17.7883 85.8372 17.772 85.8228 17.7545C85.689 17.488 85.689 17.488 85.789 17.3234C85.8896 17.1588 85.9627 17.0426 86.0427 16.903C86.1034 16.8132 86.1516 16.7212 86.1861 16.6275C86.253 16.4129 86.3129 16.1946 86.3467 15.9782C86.3467 15.912 86.2695 15.844 86.2433 15.7742C86.1495 15.5274 86.3529 15.302 86.4398 15.0712C86.5501 14.8009 86.6873 14.534 86.85 14.2716C87.0003 14.0157 87.2071 13.7689 87.3477 13.513C87.4539 13.3109 87.4842 13.0963 87.5711 12.8905C87.7076 12.5685 87.8476 12.2483 88.0178 11.9317C88.1881 11.615 88.3784 11.2823 88.6087 10.9674C89.1891 10.1714 89.5028 9.32882 90.1164 8.5381C90.195 8.4011 90.2536 8.26118 90.2936 8.11948C90.3515 7.88457 90.4859 7.65694 90.6907 7.44686C90.7644 7.36575 90.8141 7.27878 90.8375 7.18927C91.1078 6.64009 91.3642 6.08907 91.6482 5.54166C91.8247 5.19462 92.0481 4.85472 92.2384 4.50948C92.4287 4.16422 92.6224 3.77066 92.8161 3.40036C92.8361 3.35742 92.8457 3.2966 92.9023 3.27692C93.3463 3.1195 93.236 2.84401 93.3931 2.62934C93.4345 2.56512 93.4669 2.49934 93.4897 2.43256C93.5096 2.40036 93.5434 2.36995 93.5696 2.33775L93.6496 2.43256Z" fill="white"/>
<path d="M58.0671 10.5577C57.8736 10.5237 57.6667 10.5112 57.4666 10.4862C57.4465 10.4862 57.4265 10.454 57.4265 10.4486C57.7035 10.3466 57.3965 10.3269 57.3364 10.3073C57.0361 10.2142 56.7025 10.1498 56.4156 10.0461C56.3306 10.0055 56.2207 9.98303 56.1069 9.98303C55.9931 9.98303 55.8833 10.0055 55.7983 10.0461C55.567 10.1354 55.3443 10.2309 55.1311 10.3323C54.1968 10.8064 53.2559 11.2894 52.3218 11.7527C51.8947 11.9638 51.4376 12.157 51.0406 12.3842C50.6436 12.6114 50.4167 12.8297 50.0797 13.0407C49.3813 13.4355 48.8709 13.9147 48.5917 14.4378C48.545 14.5363 48.555 14.5828 48.7485 14.5326C48.8852 14.4987 48.9853 14.5041 49.0087 14.5792C49.0954 14.835 49.4391 14.9996 49.7327 15.1838C49.9205 15.3247 50.1869 15.4299 50.4934 15.4844C51.4547 15.6169 52.4407 15.6912 53.4328 15.7062C53.5329 15.7062 53.683 15.6847 53.7164 15.7062C53.762 15.7574 53.7738 15.8155 53.7498 15.8708C53.6564 16.1838 53.5563 16.4969 53.4628 16.8099C53.4628 16.8314 53.4628 16.8708 53.4929 16.8779C53.5762 16.9016 53.639 16.9418 53.6677 16.9899C53.6963 17.0381 53.6887 17.0904 53.6464 17.1355C53.4895 17.4235 53.3127 17.7044 53.1259 17.9888C52.9958 18.2053 52.869 18.4217 52.7422 18.64C52.734 18.6643 52.734 18.6891 52.7422 18.7134C52.7722 18.699 52.8122 18.6883 52.8289 18.6704C52.8456 18.6525 52.889 18.5863 52.919 18.5434C53.1092 18.2769 53.2893 18.0067 53.4929 17.742C53.6558 17.5518 53.8819 17.379 54.1602 17.2321C54.4927 17.0004 54.7822 16.7517 55.0243 16.4898C55.051 16.4683 55.1077 16.4576 55.1477 16.4415C55.1674 16.4605 55.182 16.481 55.1911 16.5022C55.1911 16.5398 55.1911 16.5792 55.1911 16.615C55.21 16.6411 55.237 16.6653 55.2712 16.6865C55.2876 16.6667 55.3021 16.6464 55.3145 16.6257C55.3713 16.5094 55.4113 16.3895 55.4814 16.2679C55.7182 15.8797 55.9819 15.4951 56.2087 15.1051C56.4689 14.6668 56.7159 14.2286 56.9361 13.7849C57.1954 13.2881 57.513 12.8005 57.8869 12.3251C58.2439 11.8703 58.4559 11.3865 58.5142 10.894C58.5342 10.64 58.5175 10.6346 58.0671 10.5577ZM55.7116 11.826C55.6682 11.9728 55.6048 12.1176 55.5381 12.2643C55.418 12.5416 55.3012 12.8189 55.1611 13.0944C55.1064 13.1609 55.0295 13.2216 54.9342 13.2733C54.8908 13.3037 54.8141 13.3251 54.7941 13.3573C54.5505 13.7366 53.9099 13.8475 53.3161 13.9799C53.0095 14.0363 52.6963 14.0817 52.3785 14.1159V14.0855C51.9714 14.0711 51.5611 14.0658 51.154 14.0372C51.0406 14.0372 50.9238 13.962 50.8438 13.9065C50.8438 13.8958 50.9405 13.8099 51.0172 13.7777C52.1548 13.3099 53.2357 12.8039 54.2536 12.2625C54.6592 12.0803 55.0847 11.9112 55.5281 11.7563C55.7717 11.6472 55.7316 11.7652 55.7116 11.826Z" fill="white"/>
<path d="M82.8151 15.0586C82.7248 15.0879 82.6421 15.1234 82.5683 15.1641C82.4022 15.2719 82.267 15.3925 82.1684 15.5219C82.0512 15.733 81.7913 15.9029 81.6576 16.1051C81.6142 16.173 81.6245 16.2589 81.4308 16.2678C81.4073 16.2678 81.3708 16.3037 81.3742 16.3198C81.3942 16.4013 81.3742 16.4842 81.3156 16.5603C81.257 16.6363 81.1619 16.7027 81.0406 16.7526C81.1274 16.8689 80.9503 16.9423 80.8737 17.0317C80.7965 17.1212 80.7235 17.2339 80.6304 17.3305C80.5628 17.393 80.487 17.4528 80.4029 17.5094C80.3767 17.529 80.3367 17.5505 80.3394 17.5684C80.3601 17.7115 80.4001 17.8546 80.0596 17.9137C80.0292 17.9137 80.0065 17.9494 79.9927 17.9691C79.8293 18.2428 79.4991 18.479 79.3757 18.7634C79.3171 18.8638 79.2399 18.9609 79.1454 19.0532C79.1254 19.0747 79.062 19.0854 79.0185 19.0997C78.9917 19.0693 78.9351 19.0353 78.9482 19.0085C78.9744 18.9112 79.0268 18.8165 79.1054 18.7276C79.2785 18.5487 79.2019 18.3305 79.5025 18.1909C79.5225 18.1909 79.5025 18.1391 79.4791 18.114C79.4287 18.0478 79.4591 18.0264 79.5825 18.0568C79.6556 18.0764 79.7224 18.1033 79.6528 18.0299C79.6114 17.9989 79.5777 17.9653 79.5521 17.9298C79.5156 17.8439 79.3853 17.7509 79.6625 17.6918C79.6983 17.6827 79.7286 17.6685 79.7514 17.6508C79.7734 17.6331 79.7859 17.6125 79.7879 17.5913C79.79 17.57 79.781 17.5488 79.7624 17.53C79.7438 17.5112 79.7162 17.4954 79.6824 17.4843C79.526 17.4199 79.5556 17.3555 79.5921 17.2661C79.7328 16.9584 79.8162 16.6435 79.9761 16.3412C80.1361 16.0389 80.3732 15.7455 80.5766 15.4468C81.0171 14.7991 81.4673 14.1534 81.8948 13.504C82.1485 13.1176 82.3753 12.7276 82.6055 12.3394C82.9557 11.7401 83.2894 11.139 83.6458 10.5416C83.7327 10.3931 83.8995 10.2589 83.9995 10.1122C84.1264 9.93333 84.2236 9.73836 84.3332 9.54874C84.6338 9.01204 84.9343 8.46106 85.2177 7.91366C85.2542 7.84391 85.4314 7.73479 85.1412 7.68649C85.1412 7.68649 85.1412 7.62923 85.1412 7.60417C85.2149 7.44999 85.3418 7.30444 85.5148 7.17485C85.8747 6.97805 85.8981 6.7169 86.0953 6.48969C86.3152 6.2285 86.4786 5.95303 86.6523 5.68288C86.7254 5.56483 86.7392 5.68288 86.7654 5.68288C86.824 5.67447 86.875 5.65631 86.9122 5.63101C86.9957 5.57018 87.0625 5.504 87.1425 5.44139C87.1825 5.41098 87.2563 5.3609 87.2859 5.36447C87.6196 5.42173 87.7664 5.25178 88.0167 5.22136C88.1938 5.19991 88.3104 5.18738 88.2573 5.05676C88.2304 4.9888 88.2807 4.89042 88.5475 4.89755C88.644 4.89755 88.764 4.74553 88.8509 4.65785C88.9108 4.59882 88.9274 4.52905 88.9811 4.46823C88.9977 4.44676 89.0646 4.4396 89.1115 4.42529C89.1314 4.45571 89.1811 4.4879 89.1714 4.51295C89.0777 4.69184 88.9908 4.87967 88.8709 5.04963C88.804 5.14443 88.7206 5.21418 88.9908 5.25356C89.048 5.25356 89.1011 5.35194 89.0942 5.40206C89.0239 5.75384 88.8336 6.09572 88.5337 6.41098C88.4772 6.48575 88.46 6.56742 88.4841 6.64711C88.604 6.98429 88.5441 7.33288 88.3104 7.65246C88.0794 8.00955 87.9098 8.37724 87.8036 8.75089C87.7382 8.98383 87.5961 9.2086 87.3831 9.41455C87.2742 9.53489 87.1908 9.66153 87.1363 9.79201C86.9495 10.0872 86.7854 10.3877 86.5489 10.6704C86.3855 10.7957 86.2725 10.9375 86.2153 11.0872C86.2153 11.1122 86.0815 11.1319 86.0153 11.157C85.9878 11.1725 85.9636 11.1893 85.9416 11.2071C86.2284 11.3019 85.9416 11.3323 85.885 11.402C85.7527 11.5457 85.641 11.6947 85.5514 11.8475C85.2473 12.3019 84.9543 12.758 84.6572 13.2124C84.6296 13.2555 84.6083 13.2998 84.5938 13.3448C84.5173 13.5612 84.4504 13.7795 84.3732 13.9959C84.3704 14.0393 84.3387 14.0806 84.2835 14.1123C84.1202 14.1784 83.9333 14.2321 84.0767 14.3698C84.0767 14.3806 84.0533 14.4163 84.0229 14.4271C83.6396 14.5559 83.5362 14.7849 83.2922 14.9637C83.1798 15.0219 83.0502 15.0696 82.9089 15.1051L82.8151 15.0586Z" fill="white"/>
<path d="M99.8477 1.68828C99.7746 1.86717 99.6981 2.01207 99.6512 2.16771C99.6374 2.26238 99.6374 2.35746 99.6512 2.45214C99.6512 2.48076 99.6512 2.50938 99.6312 2.53801L99.5478 2.47718C99.5278 2.48613 99.494 2.49507 99.4906 2.50581C99.4906 2.62209 99.3444 2.72942 99.4575 2.86359C99.4844 2.92858 99.4754 2.99641 99.4306 3.05858C99.2975 3.40741 99.0969 3.75446 99.0273 4.10688C98.9439 4.53443 98.9873 4.96914 98.9404 5.40024C98.8866 5.90475 98.9404 6.41278 98.757 6.91188C98.5385 7.45802 98.2145 7.99045 97.7891 8.50045C97.756 8.5426 97.7147 8.58278 97.6657 8.62028C97.6423 8.63816 97.5788 8.66144 97.5458 8.65787C97.3355 8.63281 97.3258 8.62924 97.279 8.73658C97.1018 9.15337 96.9687 9.57738 96.755 9.98881C96.5413 10.4002 96.4717 10.8278 96.0008 11.1892C95.9174 11.2671 95.8608 11.3526 95.8339 11.4414C95.6947 11.6954 95.4844 11.9366 95.21 12.157C94.7495 12.5559 94.3097 12.962 93.8753 13.3681C93.7044 13.5167 93.5506 13.6708 93.4155 13.8296C93.2866 13.9535 93.088 14.0525 92.8481 14.1123C92.784 14.1242 92.7158 14.1297 92.6482 14.1284C92.631 14.0951 92.6254 14.0606 92.631 14.0264C92.7613 13.7867 92.9115 13.5505 93.0315 13.3108C93.1315 13.1033 93.1983 12.8922 93.2721 12.6811C93.2721 12.6525 93.2314 12.6185 93.2087 12.5881C93.1818 12.6167 93.1584 12.6453 93.1315 12.6758C93.035 12.7885 92.9412 12.9011 92.8378 13.0121C92.815 13.0335 92.7482 13.0425 92.7047 13.0568C92.6978 13.0319 92.6978 13.0066 92.7047 12.9816C92.9184 12.6239 93.1384 12.2661 93.3486 11.9083C93.4052 11.8135 93.6085 11.7294 93.3721 11.6114C93.2818 11.5684 93.5989 11.2536 93.7319 11.2232C93.8657 11.1927 93.8726 11.1981 93.7554 11.1284C93.734 11.1105 93.7202 11.0904 93.7147 11.0693C93.7099 11.0483 93.7133 11.0269 93.7257 11.0067C93.9022 10.7062 94.0994 10.4074 94.2724 10.1123C94.3297 10.0138 94.3124 9.90471 94.3697 9.80811C94.6461 9.33228 94.9432 8.86181 95.2204 8.37701C95.4107 8.05142 95.5837 7.72405 95.7505 7.39489C95.7816 7.33472 95.7671 7.27056 95.7105 7.21602C95.6126 7.15473 95.5589 7.07667 95.5589 6.99594C95.5589 6.91526 95.6126 6.83721 95.7105 6.77591C96.2207 6.33125 96.6075 5.84913 96.8584 5.34481C96.9853 5.13731 97.1921 4.95304 97.3024 4.74371C97.5058 4.32512 97.9697 3.96377 98.2331 3.55948C98.4296 3.2643 98.5668 2.95482 98.7267 2.65429C98.737 2.63837 98.7536 2.62387 98.7757 2.61181C98.7977 2.59975 98.8239 2.59043 98.8536 2.58452C99.1404 2.55053 99.1872 2.53443 99.0535 2.43604C98.9204 2.33765 98.9735 2.30724 99.1404 2.25715C99.3072 2.20706 99.3141 2.13193 99.3975 2.06752C99.1541 1.97808 99.4175 1.93157 99.4644 1.87254C99.5347 1.80278 99.616 1.73635 99.7077 1.67397C99.7408 1.64534 99.7808 1.61851 99.818 1.59167L99.8477 1.68828Z" fill="white"/>
<path d="M71.8726 3.88869C72.076 3.84218 72.2759 3.79209 72.48 3.74916C72.9667 3.6466 73.4548 3.54701 73.9443 3.45041C74.007 3.44804 74.0704 3.45167 74.1311 3.46115C74.0897 3.48644 74.0415 3.50816 73.9877 3.52555C73.4706 3.64361 72.9467 3.75274 72.4331 3.88333C72.3469 3.90888 72.2511 3.92302 72.1532 3.92458C72.0546 3.92614 71.9574 3.91506 71.8691 3.89227L71.8726 3.88869Z" fill="white"/>
<path d="M78.582 19.8136C78.5868 19.735 78.6089 19.6569 78.6488 19.5811C78.6688 19.5543 78.8688 19.5811 78.9156 19.5471C79.0108 19.4737 79.0894 19.3944 79.1494 19.3109C79.2224 19.2287 79.2824 19.1446 79.3562 19.0623C79.3562 19.0462 79.4127 19.0354 79.443 19.0229C79.4506 19.043 79.4506 19.0637 79.443 19.0838C79.2762 19.2984 79.1094 19.5131 78.9287 19.7242C78.8908 19.7468 78.8384 19.7614 78.7819 19.7653C78.5723 19.6169 78.6488 19.8154 78.5654 19.8154L78.582 19.8136Z" fill="white"/>
<path d="M34.441 18.7582C34.426 18.8326 34.3947 18.9059 34.3475 18.9764C34.1807 19.1553 33.9905 19.3342 33.8037 19.5131C33.8037 19.5274 33.7403 19.5345 33.707 19.5453C33.6736 19.556 33.6602 19.506 33.6702 19.4952C33.8927 19.2567 34.1151 19.0241 34.3375 18.7975C34.3375 18.7814 34.4109 18.7796 34.4476 18.7707L34.441 18.7582Z" fill="white"/>
<path d="M78.5818 19.8135C78.6818 19.8296 78.7721 19.8403 78.6983 19.9208C78.5219 20.1158 78.3647 20.3144 78.1882 20.5094C78.1682 20.5326 78.1117 20.5434 78.0682 20.5612C78.0593 20.534 78.0593 20.5062 78.0682 20.479C78.2385 20.2572 78.4116 20.0353 78.5818 19.8135Z" fill="white"/>
<path d="M85.7159 17.7707C85.6022 17.9496 85.496 18.1052 85.3822 18.2662C85.3822 18.2787 85.3153 18.2823 85.2822 18.2913C85.2657 18.2662 85.2285 18.2376 85.2423 18.2179C85.3388 18.0605 85.4422 17.9048 85.5491 17.7492C85.5491 17.7313 85.596 17.7188 85.6194 17.7045L85.7159 17.7707Z" fill="white"/>
<path d="M84.4551 25.1331H86.1771V24.9126H84.7036V23.8766H86.0336V23.6596H84.7036V22.6761H86.1631V22.4556H84.4551V25.1331ZM89.3689 23.7401C89.3374 23.4321 89.0959 23.2536 88.7144 23.2536C88.3294 23.2536 88.0669 23.4706 88.0669 23.7926C88.0669 24.0936 88.2419 24.2406 88.5499 24.2826L88.8509 24.3246C89.1169 24.3631 89.1694 24.4681 89.1694 24.6326C89.1694 24.8391 88.9944 24.9861 88.7109 24.9861C88.3994 24.9861 88.2629 24.8356 88.2244 24.6186H87.9864C88.0354 25.0281 88.3364 25.1786 88.7074 25.1786C89.1239 25.1786 89.4074 24.9581 89.4074 24.6116C89.4074 24.3316 89.2639 24.1531 88.9139 24.1041L88.5849 24.0586C88.3994 24.0341 88.2979 23.9501 88.2979 23.7716C88.2979 23.5861 88.4554 23.4426 88.7074 23.4426C88.9559 23.4426 89.1064 23.5616 89.1344 23.7401H89.3689ZM91.4509 22.7496V22.9176C91.4509 23.2536 91.4019 23.3061 91.1674 23.3061H91.0869V23.4881H91.4369V24.7026C91.4369 24.9756 91.5594 25.1646 91.9129 25.1646C92.0774 25.1646 92.1824 25.1366 92.1824 25.1366V24.9336C92.1824 24.9336 92.0774 24.9546 91.9724 24.9546C91.7624 24.9546 91.6784 24.8706 91.6784 24.6746V23.4881H92.1474V23.2991H91.6784V22.7496H91.4509ZM94.0425 25.1331H94.375V24.8006H94.0425V25.1331ZM98.8839 23.3061C98.8839 22.8931 99.1499 22.7041 99.4544 22.7041C99.7799 22.7041 99.9794 22.9036 99.9794 23.1976C99.9794 23.5406 99.7904 23.7261 99.4614 24.0446L98.5619 24.9231V25.1331H100.259V24.9161H98.8769V24.9091L99.6854 24.1391C100.081 23.7611 100.235 23.5546 100.235 23.1871C100.235 22.8441 100.004 22.5011 99.4474 22.5011C99.0029 22.5011 98.6319 22.7951 98.6354 23.3061H98.8839ZM102.127 23.8451C102.127 24.7411 102.484 25.1891 103.044 25.1891C103.6 25.1891 103.964 24.7411 103.964 23.8451C103.964 22.9456 103.593 22.5011 103.044 22.5011C102.487 22.5011 102.127 22.9421 102.127 23.8451ZM103.044 24.9931C102.631 24.9931 102.386 24.5766 102.386 23.8486C102.386 23.0856 102.634 22.7041 103.044 22.7041C103.457 22.7041 103.705 23.1066 103.705 23.8486C103.705 24.5661 103.446 24.9931 103.044 24.9931ZM106.311 25.1331H106.556V22.5256H106.349C106.342 22.6971 106.325 22.7951 106.251 22.8651C106.178 22.9316 106.066 22.9561 105.887 22.9561H105.782V23.1416H106.311V25.1331ZM108.95 23.3061C108.95 22.8931 109.216 22.7041 109.521 22.7041C109.846 22.7041 110.046 22.9036 110.046 23.1976C110.046 23.5406 109.857 23.7261 109.528 24.0446L108.628 24.9231V25.1331H110.326V24.9161H108.943V24.9091L109.752 24.1391C110.147 23.7611 110.301 23.5546 110.301 23.1871C110.301 22.8441 110.07 22.5011 109.514 22.5011C109.069 22.5011 108.698 22.7951 108.702 23.3061H108.95Z" fill="white"/>
</g>
<defs>
<clipPath id="clip0_569_51">
<rect width="137.881" height="26.7531" fill="white" transform="translate(0.0595703 -0.00012207)"/>
</clipPath>
</defs>
</svg>
