<svg width="26" height="24" viewBox="0 0 26 24" fill="none" xmlns="http://www.w3.org/2000/svg">
<rect width="14.877" height="2.04196" transform="matrix(-0.592815 0.805339 0.789456 0.613807 23.8662 0.699951)" fill="#D0D0D0"/>
<rect width="1.4162" height="2.04196" transform="matrix(-0.592815 0.805339 0.789456 0.613807 14.4199 13.5317)" fill="#D0D0D0"/>
<path fill-rule="evenodd" clip-rule="evenodd" d="M11.6344 17.3188L13.1496 15.2605L14.7616 16.5139L14.169 17.3188L11.6344 17.3188ZM11.209 17.8967L11.209 17.8968L11.209 17.8968L11.209 17.8967Z" fill="#D0D0D0"/>
<path d="M16.2598 9.00964L0.0888081 9.00964L0.0888079 11.0871L14.7437 11.0871L16.2598 9.00964Z" fill="#D0D0D0"/>
<path d="M24.3447 9.00964L21.6496 9.00964L20.302 11.0871L24.3447 11.0871L24.3447 9.00964Z" fill="#D0D0D0"/>
<rect width="24.2564" height="2.07744" transform="matrix(-1 -8.98476e-08 -8.50634e-08 1 24.3447 21.4744)" fill="#D0D0D0"/>
<rect width="14.5421" height="2.02137" transform="matrix(-4.25317e-08 -1 -1 4.49238e-08 2.11035 23.5519)" fill="#D0D0D0"/>
<rect width="13.5033" height="2.02137" transform="matrix(-4.25317e-08 -1 -1 4.49238e-08 24.3447 23.5519)" fill="#D0D0D0"/>
</svg>
