<svg width="26" height="19" viewBox="0 0 26 19" fill="none" xmlns="http://www.w3.org/2000/svg">
<rect width="24.2564" height="2.07744" transform="matrix(-1 -8.98476e-08 -8.50634e-08 1 25.0869 0.932129)" fill="#D0D0D0"/>
<rect width="7.07479" height="2.07744" transform="matrix(-1 -1.05899e-07 -7.217e-08 1 11.9473 5.08728)" fill="#D0D0D0"/>
<rect width="7.07479" height="2.07744" transform="matrix(-1 -1.05899e-07 -7.217e-08 1 22.0537 5.08728)" fill="#D0D0D0"/>
<rect width="24.2564" height="2.07744" transform="matrix(-1 -8.98476e-08 -8.50634e-08 1 25.0869 13.397)" fill="#D0D0D0"/>
<rect width="8.08548" height="2.07744" transform="matrix(-1 -1.05899e-07 -7.217e-08 1 11.9473 9.24182)" fill="#D0D0D0"/>
<rect width="8.08548" height="2.07744" transform="matrix(-1 -1.05899e-07 -7.217e-08 1 22.0537 9.24182)" fill="#D0D0D0"/>
<rect width="14.5421" height="2.02137" transform="matrix(-4.25317e-08 -1 -1 4.49238e-08 2.85254 15.4742)" fill="#D0D0D0"/>
<rect width="5.19359" height="2.02137" transform="matrix(-3.96962e-08 -1 -1 4.81327e-08 5.88379 10.2808)" fill="#D0D0D0"/>
<rect width="13.5033" height="2.02137" transform="matrix(-4.25317e-08 -1 -1 4.49238e-08 25.0869 15.4742)" fill="#D0D0D0"/>
<rect width="5.19359" height="2.02137" transform="matrix(-3.6085e-08 -1 -1 5.29496e-08 11.9473 10.2808)" fill="#D0D0D0"/>
<rect width="5.19359" height="2.02137" transform="matrix(-4.25317e-08 -1 -1 4.49238e-08 13.9688 18.5905)" fill="#D0D0D0"/>
</svg>
